<svg width="24" height="24" viewBox="0 0 24 24" fill="none" xmlns="http://www.w3.org/2000/svg">
  <path d="M21.4244 11.2868C20.299 9.50484 16.9492 5 11.8442 5C10.8438 5 8.34375 5.5 6.56807 6.71504C4.406 8.1817 2.9382 10.2194 2.26486 11.2853C2.12803 11.5019 2.05962 11.6102 2.02149 11.7765C1.99285 11.9014 1.99284 12.0984 2.02146 12.2234C2.05958 12.3897 2.12768 12.4975 2.26388 12.7132C3.38929 14.4952 6.73916 19 11.8442 19C13.9026 19 15.6756 18.2676 17.1326 17.2766C19.3438 15.7726 21.1231 13.1901 21.4229 12.7156C21.5601 12.4985 21.6287 12.3899 21.6668 12.2236C21.6955 12.0987 21.6955 11.9016 21.6669 11.7767C21.6288 11.6103 21.5607 11.5025 21.4244 11.2868Z" stroke="#CACACA" stroke-width="2" stroke-linecap="round" stroke-linejoin="round"/>
  <circle cx="12" cy="12" r="2.5" stroke="#CACACA" stroke-width="2" fill="none"/>
</svg>
